<svg width="41" height="40" viewBox="0 0 41 40" fill="none" xmlns="http://www.w3.org/2000/svg">
<path fill-rule="evenodd" clip-rule="evenodd" d="M29.5001 12.9647C23.3718 12.5323 18.3338 8.15652 16.9058 2.35838C8.68763 4.02312 2.5 11.2899 2.5 19.9998C2.5 29.9409 10.5589 37.9998 20.5 37.9998C29.7653 37.9998 37.3957 30.9994 38.3902 21.9991C33.4702 21.9403 29.5 17.9337 29.5 12.9998C29.5 12.9881 29.5 12.9764 29.5001 12.9647ZM29.729 10.9754C23.8753 10.6043 19.1617 6.03612 18.564 0.246765C18.5587 0.195853 18.5538 0.144848 18.5492 0.09375C17.8785 0.158671 17.2176 0.256718 16.5679 0.38623C7.40514 2.21297 0.5 10.3 0.5 19.9998C0.5 31.0455 9.4543 39.9998 20.5 39.9998C30.941 39.9998 39.5133 31.9991 40.4206 21.794C40.4732 21.2029 40.5 20.6045 40.5 19.9998C40.5 19.9032 40.4993 19.8068 40.498 19.7105C39.8648 19.8987 39.1942 19.9998 38.5 19.9998C34.634 19.9998 31.5 16.8658 31.5 12.9998C31.5 12.988 31.5 12.9763 31.5001 12.9646C31.5036 12.2562 31.6123 11.5727 31.8114 10.929C31.3807 10.9758 30.9431 10.9998 30.5 10.9998C30.241 10.9998 29.9839 10.9916 29.729 10.9754Z" fill="#222222"/>
<path d="M18.5 12C18.5 13.1046 17.6046 14 16.5 14C15.3954 14 14.5 13.1046 14.5 12C14.5 10.8954 15.3954 10 16.5 10C17.6046 10 18.5 10.8954 18.5 12Z" fill="#222222"/>
<path d="M27.5 3C27.5 4.10457 26.6046 5 25.5 5C24.3954 5 23.5 4.10457 23.5 3C23.5 1.89543 24.3954 1 25.5 1C26.6046 1 27.5 1.89543 27.5 3Z" fill="#222222"/>
<path d="M21.5 21C21.5 22.1046 20.6046 23 19.5 23C18.3954 23 17.5 22.1046 17.5 21C17.5 19.8954 18.3954 19 19.5 19C20.6046 19 21.5 19.8954 21.5 21Z" fill="#222222"/>
<path d="M16.5 31C16.5 32.1046 15.6046 33 14.5 33C13.3954 33 12.5 32.1046 12.5 31C12.5 29.8954 13.3954 29 14.5 29C15.6046 29 16.5 29.8954 16.5 31Z" fill="#222222"/>
<path fill-rule="evenodd" clip-rule="evenodd" d="M25.5 30C26.6046 30 27.5 29.1046 27.5 28C27.5 26.8954 26.6046 26 25.5 26C24.3954 26 23.5 26.8954 23.5 28C23.5 29.1046 24.3954 30 25.5 30ZM25.5 32C27.7091 32 29.5 30.2091 29.5 28C29.5 25.7909 27.7091 24 25.5 24C23.2909 24 21.5 25.7909 21.5 28C21.5 30.2091 23.2909 32 25.5 32Z" fill="#222222"/>
<path fill-rule="evenodd" clip-rule="evenodd" d="M9.5 21C10.6046 21 11.5 20.1046 11.5 19C11.5 17.8954 10.6046 17 9.5 17C8.39543 17 7.5 17.8954 7.5 19C7.5 20.1046 8.39543 21 9.5 21ZM9.5 23C11.7091 23 13.5 21.2091 13.5 19C13.5 16.7909 11.7091 15 9.5 15C7.29086 15 5.5 16.7909 5.5 19C5.5 21.2091 7.29086 23 9.5 23Z" fill="#222222"/>
<path fill-rule="evenodd" clip-rule="evenodd" d="M33.5 6C34.6046 6 35.5 5.10457 35.5 4C35.5 2.89543 34.6046 2 33.5 2C32.3954 2 31.5 2.89543 31.5 4C31.5 5.10457 32.3954 6 33.5 6ZM33.5 8C35.7091 8 37.5 6.20914 37.5 4C37.5 1.79086 35.7091 0 33.5 0C31.2909 0 29.5 1.79086 29.5 4C29.5 6.20914 31.2909 8 33.5 8Z" fill="#222222"/>
</svg>
