<svg width="41" height="40" viewBox="0 0 41 40" fill="none" xmlns="http://www.w3.org/2000/svg">
<path fill-rule="evenodd" clip-rule="evenodd" d="M38.5 36H2.5V38H38.5V36ZM2.5 34C1.39543 34 0.5 34.8954 0.5 36V40H40.5V36C40.5 34.8954 39.6046 34 38.5 34H2.5Z" fill="#222222"/>
<path fill-rule="evenodd" clip-rule="evenodd" d="M19.5356 33.9585C21.7141 35.4921 24 35.9449 24 35.9449L6 36V11H15.6585V26.6103C15.6585 30.2711 17.5526 32.5626 19.5356 33.9585ZM16.506 33.9678C14.9155 32.2696 13.6585 29.8791 13.6585 26.6103V13H8V33.9939L16.506 33.9678Z" fill="#222222"/>
<path fill-rule="evenodd" clip-rule="evenodd" d="M34.5 11L34.5 7C34.5 4.23858 32.2614 2 29.5 2L4.5 2L4.5 11L34.5 11ZM36.5 7C36.5 3.13401 33.366 -1.36992e-07 29.5 -3.0598e-07L4.5 -1.39876e-06C3.39543 -1.44705e-06 2.5 0.895429 2.5 2L2.5 13L36.5 13L36.5 7Z" fill="#222222"/>
<path fill-rule="evenodd" clip-rule="evenodd" d="M37 25H20V28C20 31.3137 22.6863 34 26 34H31C34.3137 34 37 31.3137 37 28V25ZM18 23V28C18 32.4183 21.5817 36 26 36H31C35.4183 36 39 32.4183 39 28V23H18Z" fill="#222222"/>
<path fill-rule="evenodd" clip-rule="evenodd" d="M21.5 11H33.5V17H21.5V11ZM23.5 13V15H31.5V13H23.5Z" fill="#222222"/>
<path fill-rule="evenodd" clip-rule="evenodd" d="M24 15H30V25H24V15ZM28 17H26V23H28V17Z" fill="#222222"/>
<path fill-rule="evenodd" clip-rule="evenodd" d="M27.5 29H19.5V27H27.5V29Z" fill="#222222"/>
<path fill-rule="evenodd" clip-rule="evenodd" d="M35.3333 7H24.5V5H35.3333V7Z" fill="#222222"/>
</svg>
