<svg width="41" height="40" viewBox="0 0 41 40" fill="none" xmlns="http://www.w3.org/2000/svg">
<path fill-rule="evenodd" clip-rule="evenodd" d="M20.5 38C30.4411 38 38.5 29.9411 38.5 20C38.5 10.0589 30.4411 2 20.5 2C10.5589 2 2.5 10.0589 2.5 20C2.5 29.9411 10.5589 38 20.5 38ZM20.5 40C31.5457 40 40.5 31.0457 40.5 20C40.5 8.9543 31.5457 0 20.5 0C9.4543 0 0.5 8.9543 0.5 20C0.5 31.0457 9.4543 40 20.5 40Z" fill="#222222"/>
<path fill-rule="evenodd" clip-rule="evenodd" d="M20.5 7L20.5 23L18.5 23L18.5 7L20.5 7Z" fill="#222222"/>
<path fill-rule="evenodd" clip-rule="evenodd" d="M29.5 23H18.5V21H29.5V23Z" fill="#222222"/>
</svg>
