<svg width="148" height="30" viewBox="0 0 148 30" fill="none" xmlns="http://www.w3.org/2000/svg">
<path d="M147.728 9.7041L139.496 29.2881H135.92L138.8 22.6641L133.472 9.7041H137.24L140.672 18.9921L144.152 9.7041H147.728Z" fill="#222222"/>
<path d="M129.615 12.464V18.896C129.615 19.344 129.719 19.672 129.927 19.88C130.151 20.072 130.519 20.168 131.031 20.168H132.591V23H130.479C127.647 23 126.231 21.624 126.231 18.872V12.464H124.647V9.70402H126.231V6.41602H129.615V9.70402H132.591V12.464H129.615Z" fill="#222222"/>
<path d="M122.383 5.23999V23H119.023V5.23999H122.383Z" fill="#222222"/>
<path d="M101.894 16.304C101.894 14.96 102.158 13.768 102.686 12.728C103.23 11.688 103.958 10.888 104.87 10.328C105.798 9.76804 106.83 9.48804 107.966 9.48804C108.958 9.48804 109.822 9.68804 110.558 10.088C111.31 10.488 111.91 10.992 112.358 11.6V9.70404H115.742V23H112.358V21.056C111.926 21.68 111.326 22.2 110.558 22.616C109.806 23.016 108.934 23.216 107.942 23.216C106.822 23.216 105.798 22.928 104.87 22.352C103.958 21.776 103.23 20.968 102.686 19.928C102.158 18.872 101.894 17.664 101.894 16.304ZM112.358 16.352C112.358 15.536 112.198 14.84 111.878 14.264C111.558 13.672 111.126 13.224 110.582 12.92C110.038 12.6 109.454 12.44 108.83 12.44C108.206 12.44 107.63 12.592 107.102 12.896C106.574 13.2 106.142 13.648 105.806 14.24C105.486 14.816 105.326 15.504 105.326 16.304C105.326 17.104 105.486 17.808 105.806 18.416C106.142 19.008 106.574 19.464 107.102 19.784C107.646 20.104 108.222 20.264 108.83 20.264C109.454 20.264 110.038 20.112 110.582 19.808C111.126 19.488 111.558 19.04 111.878 18.464C112.198 17.872 112.358 17.168 112.358 16.352Z" fill="#222222"/>
<path d="M93.9167 23.1681C92.7487 23.1681 91.6927 22.9681 90.7487 22.5681C89.8207 22.1681 89.0847 21.5921 88.5407 20.8401C87.9967 20.0881 87.7167 19.2001 87.7007 18.1761H91.3007C91.3487 18.8641 91.5887 19.4081 92.0207 19.8081C92.4687 20.2081 93.0767 20.4081 93.8447 20.4081C94.6287 20.4081 95.2447 20.2241 95.6927 19.8561C96.1407 19.4721 96.3647 18.9761 96.3647 18.3681C96.3647 17.8721 96.2127 17.4641 95.9087 17.1441C95.6047 16.8241 95.2207 16.5761 94.7567 16.4001C94.3087 16.2081 93.6847 16.0001 92.8847 15.7761C91.7967 15.4561 90.9087 15.1441 90.2207 14.8401C89.5487 14.5201 88.9647 14.0481 88.4687 13.4241C87.9887 12.7841 87.7487 11.9361 87.7487 10.8801C87.7487 9.88806 87.9967 9.02406 88.4927 8.28806C88.9887 7.55206 89.6847 6.99206 90.5807 6.60806C91.4767 6.20806 92.5007 6.00806 93.6527 6.00806C95.3807 6.00806 96.7807 6.43206 97.8527 7.28006C98.9407 8.11206 99.5407 9.28006 99.6527 10.7841H95.9567C95.9247 10.2081 95.6767 9.73606 95.2127 9.36806C94.7647 8.98406 94.1647 8.79206 93.4127 8.79206C92.7567 8.79206 92.2287 8.96006 91.8287 9.29606C91.4447 9.63206 91.2527 10.1201 91.2527 10.7601C91.2527 11.2081 91.3967 11.5841 91.6847 11.8881C91.9887 12.1761 92.3567 12.4161 92.7887 12.6081C93.2367 12.7841 93.8607 12.9921 94.6607 13.2321C95.7487 13.5521 96.6367 13.8721 97.3247 14.1921C98.0127 14.5121 98.6047 14.9921 99.1007 15.6321C99.5967 16.2721 99.8447 17.1121 99.8447 18.1521C99.8447 19.0481 99.6127 19.8801 99.1487 20.6481C98.6847 21.4161 98.0047 22.0321 97.1087 22.4961C96.2127 22.9441 95.1487 23.1681 93.9167 23.1681Z" fill="#222222"/>
<path d="M85.4609 0.271973L78.9809 27.344H75.6929L82.1729 0.271973H85.4609Z" fill="#222222"/>
<path d="M69.0681 12.464V18.896C69.0681 19.344 69.1721 19.672 69.3801 19.88C69.6041 20.072 69.9721 20.168 70.4841 20.168H72.0441V23H69.9321C67.1001 23 65.6841 21.624 65.6841 18.872V12.464H64.1001V9.70402H65.6841V6.41602H69.0681V9.70402H72.0441V12.464H69.0681Z" fill="#222222"/>
<path d="M62.7035 16.064C62.7035 16.544 62.6715 16.976 62.6075 17.36H52.8875C52.9675 18.32 53.3035 19.072 53.8955 19.616C54.4875 20.16 55.2155 20.432 56.0795 20.432C57.3275 20.432 58.2155 19.896 58.7435 18.824H62.3675C61.9835 20.104 61.2475 21.16 60.1595 21.992C59.0715 22.808 57.7355 23.216 56.1515 23.216C54.8715 23.216 53.7195 22.936 52.6955 22.376C51.6875 21.8 50.8955 20.992 50.3195 19.952C49.7595 18.912 49.4795 17.712 49.4795 16.352C49.4795 14.976 49.7595 13.768 50.3195 12.728C50.8795 11.688 51.6635 10.888 52.6715 10.328C53.6795 9.76804 54.8395 9.48804 56.1515 9.48804C57.4155 9.48804 58.5435 9.76004 59.5355 10.304C60.5435 10.848 61.3195 11.624 61.8635 12.632C62.4235 13.624 62.7035 14.768 62.7035 16.064ZM59.2235 15.104C59.2075 14.24 58.8955 13.552 58.2875 13.04C57.6795 12.512 56.9355 12.248 56.0555 12.248C55.2235 12.248 54.5195 12.504 53.9435 13.016C53.3835 13.512 53.0395 14.208 52.9115 15.104H59.2235Z" fill="#222222"/>
<path d="M47.891 16.064C47.891 16.544 47.859 16.976 47.795 17.36H38.075C38.155 18.32 38.491 19.072 39.083 19.616C39.675 20.16 40.403 20.432 41.267 20.432C42.515 20.432 43.403 19.896 43.931 18.824H47.555C47.171 20.104 46.435 21.16 45.347 21.992C44.259 22.808 42.923 23.216 41.339 23.216C40.059 23.216 38.907 22.936 37.883 22.376C36.875 21.8 36.083 20.992 35.507 19.952C34.947 18.912 34.667 17.712 34.667 16.352C34.667 14.976 34.947 13.768 35.507 12.728C36.067 11.688 36.851 10.888 37.859 10.328C38.867 9.76804 40.027 9.48804 41.339 9.48804C42.603 9.48804 43.731 9.76004 44.723 10.304C45.731 10.848 46.507 11.624 47.051 12.632C47.611 13.624 47.891 14.768 47.891 16.064ZM44.411 15.104C44.395 14.24 44.083 13.552 43.475 13.04C42.867 12.512 42.123 12.248 41.243 12.248C40.411 12.248 39.707 12.504 39.131 13.016C38.571 13.512 38.227 14.208 38.099 15.104H44.411Z" fill="#222222"/>
<path d="M33.713 9.7041L29.825 23.0001H26.201L23.777 13.7121L21.353 23.0001H17.705L13.793 9.7041H17.201L19.553 19.8321L22.097 9.7041H25.649L28.145 19.8081L30.497 9.7041H33.713Z" fill="#222222"/>
<path d="M6.44012 23.1681C5.27212 23.1681 4.21612 22.9681 3.27212 22.5681C2.34412 22.1681 1.60812 21.5921 1.06412 20.8401C0.520121 20.0881 0.240121 19.2001 0.224121 18.1761H3.82412C3.87212 18.8641 4.11212 19.4081 4.54412 19.8081C4.99212 20.2081 5.60012 20.4081 6.36812 20.4081C7.15212 20.4081 7.76812 20.2241 8.21612 19.8561C8.66412 19.4721 8.88812 18.9761 8.88812 18.3681C8.88812 17.8721 8.73612 17.4641 8.43212 17.1441C8.12812 16.8241 7.74412 16.5761 7.28012 16.4001C6.83212 16.2081 6.20812 16.0001 5.40812 15.7761C4.32012 15.4561 3.43212 15.1441 2.74412 14.8401C2.07212 14.5201 1.48812 14.0481 0.992121 13.4241C0.512121 12.7841 0.272121 11.9361 0.272121 10.8801C0.272121 9.88806 0.520121 9.02406 1.01612 8.28806C1.51212 7.55206 2.20812 6.99206 3.10412 6.60806C4.00012 6.20806 5.02412 6.00806 6.17612 6.00806C7.90412 6.00806 9.30412 6.43206 10.3761 7.28006C11.4641 8.11206 12.0641 9.28006 12.1761 10.7841H8.48012C8.44812 10.2081 8.20012 9.73606 7.73612 9.36806C7.28812 8.98406 6.68812 8.79206 5.93612 8.79206C5.28012 8.79206 4.75212 8.96006 4.35212 9.29606C3.96812 9.63206 3.77612 10.1201 3.77612 10.7601C3.77612 11.2081 3.92012 11.5841 4.20812 11.8881C4.51212 12.1761 4.88012 12.4161 5.31212 12.6081C5.76012 12.7841 6.38412 12.9921 7.18412 13.2321C8.27212 13.5521 9.16012 13.8721 9.84812 14.1921C10.5361 14.5121 11.1281 14.9921 11.6241 15.6321C12.1201 16.2721 12.3681 17.1121 12.3681 18.1521C12.3681 19.0481 12.1361 19.8801 11.6721 20.6481C11.2081 21.4161 10.5281 22.0321 9.63212 22.4961C8.73612 22.9441 7.67212 23.1681 6.44012 23.1681Z" fill="#222222"/>
</svg>
