<svg width="24" height="24" viewBox="0 0 24 24" fill="none" xmlns="http://www.w3.org/2000/svg">
<path d="M22.0751 22.0751C21.5643 22.5859 20.7361 22.5859 20.2252 22.0751L14.6096 16.4594C13.9489 16.988 13.1892 17.4064 12.3303 17.7147C11.4714 18.023 10.5575 18.1771 9.58857 18.1771C7.18817 18.1771 5.15665 17.3458 3.49399 15.6831C1.83133 14.0205 1 11.989 1 9.58857C1 7.18817 1.83133 5.15665 3.49399 3.49399C5.15665 1.83133 7.18817 1 9.58857 1C11.989 1 14.0205 1.83133 15.6831 3.49399C17.3458 5.15665 18.1771 7.18817 18.1771 9.58857C18.1771 10.5575 18.023 11.4714 17.7147 12.3303C17.4064 13.1892 16.988 13.9489 16.4594 14.6096L22.0751 20.2252C22.5859 20.7361 22.5859 21.5643 22.0751 22.0751V22.0751ZM9.58857 15.5345C11.2402 15.5345 12.6441 14.9564 13.8003 13.8003C14.9564 12.6441 15.5345 11.2402 15.5345 9.58857C15.5345 7.93692 14.9564 6.53302 13.8003 5.37687C12.6441 4.22071 11.2402 3.64264 9.58857 3.64264C7.93692 3.64264 6.53302 4.22071 5.37687 5.37687C4.22071 6.53302 3.64264 7.93692 3.64264 9.58857C3.64264 11.2402 4.22071 12.6441 5.37687 13.8003C6.53302 14.9564 7.93692 15.5345 9.58857 15.5345Z" fill="#222222"/>
</svg>
