<svg width="51" height="49" viewBox="0 0 51 49" fill="none" xmlns="http://www.w3.org/2000/svg">
<path fill-rule="evenodd" clip-rule="evenodd" d="M48.9426 24.4826C48.9426 36.7386 38.711 46.771 25.9685 46.771C15.885 46.771 7.3738 40.4887 4.2608 31.7936C4.52121 31.6862 4.77628 31.5655 5.02555 31.4324L4.54771 30.5377L5.02555 31.4324C8.68542 29.4777 11.1069 24.8639 11.1169 19.6688C11.1186 18.8195 11.0562 17.9885 10.9353 17.1838C14.5765 17.5831 18.9457 17.0179 22.9862 15.445C28.1489 13.4352 32.9559 9.70651 35.0212 3.98952C43.2279 7.40555 48.9426 15.3231 48.9426 24.4826ZM33.0886 3.28385C30.8493 2.5769 28.4568 2.19434 25.9685 2.19434C13.226 2.19434 2.99439 12.2267 2.99439 24.4826C2.99439 26.3183 3.22392 28.1041 3.65704 29.8138C3.79144 29.7534 3.92457 29.6879 4.0563 29.6176C6.88402 28.1073 9.05058 24.3075 9.05956 19.6648C9.06148 18.676 8.96456 17.72 8.78219 16.8134C8.45459 16.7343 8.13635 16.6457 7.82849 16.5478C7.2871 16.3755 6.98786 15.797 7.16012 15.2556C7.33237 14.7142 7.91089 14.415 8.45228 14.5872C11.9518 15.7007 17.2969 15.452 22.2399 13.5277C27.0424 11.6582 31.2851 8.28037 33.0886 3.28385ZM51 24.4826C51 37.9284 39.793 48.8283 25.9685 48.8283C12.144 48.8283 0.937012 37.9284 0.937012 24.4826C0.937012 11.0369 12.144 0.136963 25.9685 0.136963C39.793 0.136963 51 11.0369 51 24.4826Z" fill="#222222"/>
<path fill-rule="evenodd" clip-rule="evenodd" d="M32.8263 22.082C33.0416 21.7955 33.1692 21.4394 33.1692 21.0534C33.1692 20.1065 32.4017 19.3389 31.4547 19.3389C30.5077 19.3389 29.7402 20.1065 29.7402 21.0534C29.7402 21.4394 29.8678 21.7955 30.0831 22.082C30.3959 21.6656 30.8938 21.3962 31.4547 21.3962C32.0156 21.3962 32.5135 21.6656 32.8263 22.082Z" fill="#222222"/>
<path d="M38.6565 21.0534C38.6565 22.0002 37.8889 22.7678 36.942 22.7678C35.9951 22.7678 35.2275 22.0002 35.2275 21.0534C35.2275 20.1065 35.9951 19.3389 36.942 19.3389C37.8889 19.3389 38.6565 20.1065 38.6565 21.0534Z" fill="#222222"/>
<path fill-rule="evenodd" clip-rule="evenodd" d="M39.4503 28.2641C39.8711 28.0813 40.1671 28.1034 40.3795 28.1948C40.6057 28.2921 40.8458 28.5152 41.0495 28.9294C41.2128 29.2615 41.3031 29.6316 41.351 29.9327C41.3542 29.9527 41.3571 29.9722 41.3599 29.9913C41.2425 30.063 41.1176 30.1362 40.9848 30.2105C40.9293 30.2415 40.8725 30.2727 40.8143 30.304L40.5059 29.5026C40.4379 29.3258 40.2395 29.2377 40.0628 29.3057C39.886 29.3737 39.7979 29.5721 39.8659 29.7488L40.1986 30.6137C39.9628 30.7244 39.7096 30.8348 39.4387 30.9426C39.3284 30.6627 39.1988 30.3569 39.0647 30.091C38.8739 29.7127 38.8243 29.2968 38.9009 28.9581C38.9744 28.6329 39.1568 28.3916 39.4503 28.2641ZM38.141 31.391C38.0461 31.1531 37.942 30.9109 37.8401 30.7087C37.5192 30.0724 37.41 29.3324 37.5631 28.6555C37.7193 27.9651 38.1551 27.3313 38.9038 27.0061C39.599 26.704 40.295 26.6653 40.9215 26.9348C41.5342 27.1984 41.98 27.7136 42.2803 28.3241C42.4106 28.5892 42.5055 28.8591 42.5748 29.1105C42.6206 29.0699 42.6583 29.0351 42.6882 29.0068C42.7216 28.9752 42.7451 28.9517 42.7591 28.9375L42.7654 28.9311L42.7728 28.9234C42.7728 28.9234 42.9344 28.7653 43.1399 28.6814C43.6284 28.4822 44.2002 29.1975 43.9389 29.6559C43.8758 29.7666 43.7967 29.8393 43.7835 29.851C43.7822 29.8522 43.781 29.8534 43.7798 29.8547L43.7765 29.8582L43.7671 29.8682C43.7596 29.8761 43.7496 29.8865 43.7371 29.8992C43.7121 29.9246 43.677 29.9595 43.6316 30.0025C43.5408 30.0885 43.4087 30.2073 43.2338 30.3495C42.8838 30.6339 42.3619 31.0119 41.6543 31.4076C40.2375 32.2 38.0841 33.0593 35.0903 33.3861C32.0964 33.7129 29.8084 33.3384 28.2539 32.8703C27.4777 32.6366 26.8865 32.3801 26.4834 32.1779C26.2819 32.0768 26.1273 31.9893 26.0201 31.9249C25.9665 31.8927 25.9247 31.8662 25.8948 31.8468C25.8798 31.8371 25.8678 31.8291 25.8588 31.823L25.8475 31.8153L25.8435 31.8125L25.8419 31.8115C25.8415 31.8111 25.8414 31.8108 25.8417 31.8103L25.8503 31.7978C25.3549 32.2454 24.6819 32.6116 23.7964 32.8388C23.4295 32.933 23.0558 32.7119 22.9616 32.345C22.8675 31.9782 23.0886 31.6044 23.4554 31.5103C24.6465 31.2046 25.1828 30.6335 25.4263 30.1199C25.6849 29.5747 25.6584 28.9985 25.561 28.6584C25.4567 28.2943 25.6673 27.9145 26.0314 27.8103C26.3955 27.706 26.7752 27.9166 26.8795 28.2807C27.0524 28.8843 27.0908 29.8111 26.6656 30.7076L26.6641 30.7108C26.6801 30.7209 26.7009 30.7338 26.7264 30.7491C26.8052 30.7964 26.9293 30.8671 27.0984 30.9519C27.4365 31.1215 27.9544 31.3477 28.6494 31.557C30.0374 31.9749 32.1404 32.3284 34.9414 32.0226C36.1611 31.8895 37.2245 31.6629 38.141 31.391Z" fill="#222222"/>
</svg>
