<svg width="40" height="40" viewBox="0 0 40 40" fill="none" xmlns="http://www.w3.org/2000/svg">
<path d="M38.9992 20C38.9992 9.50706 30.4928 1.00073 20 1.00073C9.50706 1.00073 1.00073 9.50706 1.00073 20C1.00073 28.9098 7.1352 36.3864 15.4105 38.4398V25.8061H11.4929V20H15.4105V17.4981C15.4105 11.0316 18.3371 8.03424 24.6859 8.03424C25.8897 8.03424 27.9667 8.27059 28.8163 8.50618V13.769C28.368 13.7218 27.589 13.6983 26.6216 13.6983C23.5064 13.6983 22.3027 14.8785 22.3027 17.9465V20H28.5086L27.4423 25.8061H22.3027V38.8601C31.7103 37.7239 38.9999 29.7139 38.9999 20H38.9992Z" fill="#222222"/>
<path d="M27.4414 25.8061L28.5076 19.9999H22.3017V17.9465C22.3017 14.8785 23.5055 13.6982 26.6206 13.6982C27.5881 13.6982 28.367 13.7218 28.8154 13.7689V8.50612C27.9658 8.26977 25.8888 8.03418 24.685 8.03418C18.3362 8.03418 15.4096 11.0315 15.4096 17.4981V19.9999H11.4919V25.8061H15.4096V38.4398C16.8794 38.8046 18.4168 38.9991 19.999 38.9991C20.778 38.9991 21.5463 38.9512 22.301 38.86V25.8061H27.4406H27.4414Z" fill="white"/>
</svg>
