<svg width="40" height="40" viewBox="0 0 40 40" fill="none" xmlns="http://www.w3.org/2000/svg">
<mask id="mask0_680_835" style="mask-type:luminance" maskUnits="userSpaceOnUse" x="1" y="1" width="39" height="39">
<path d="M20.0001 4.42297C25.0734 4.42297 25.6743 4.44197 27.678 4.53348C29.5307 4.618 30.5367 4.92719 31.2061 5.18758C32.0934 5.53249 32.7261 5.94368 33.391 6.60857C34.0557 7.27347 34.4678 7.90629 34.812 8.79342C35.0724 9.46287 35.3816 10.4689 35.4661 12.3216C35.5574 14.3252 35.5766 14.926 35.5766 19.9995C35.5766 25.073 35.5576 25.6736 35.4661 27.6772C35.3816 29.5299 35.0724 30.5359 34.812 31.2054C34.4671 32.0927 34.0559 32.7253 33.391 33.3902C32.7261 34.055 32.0933 34.4671 31.2061 34.8112C30.5367 35.0716 29.5307 35.3808 27.678 35.4653C25.6745 35.5567 25.0736 35.5758 20.0001 35.5758C14.9266 35.5758 14.326 35.5568 12.3223 35.4653C10.4696 35.3808 9.46363 35.0716 8.79418 34.8112C7.90689 34.4661 7.27423 34.055 6.60933 33.3902C5.94459 32.7253 5.53249 32.0925 5.18834 31.2054C4.9278 30.5359 4.61876 29.5299 4.53424 27.6772C4.44288 25.6737 4.42373 25.0728 4.42373 19.9995C4.42373 14.9261 4.44273 14.3254 4.53424 12.3216C4.61876 10.4689 4.92795 9.46287 5.18834 8.79342C5.53325 7.90614 5.94444 7.27347 6.60933 6.60857C7.27423 5.94383 7.90705 5.53173 8.79418 5.18758C9.46363 4.92719 10.4696 4.618 12.3223 4.53348C14.3258 4.44288 14.9267 4.42297 20.0001 4.42297ZM20.0001 1C14.8399 1 14.1927 1.02204 12.1662 1.11416C10.1436 1.20628 8.76287 1.52778 7.55438 1.99749C6.30471 2.48332 5.2455 3.13301 4.18918 4.18918C3.13301 5.2455 2.48271 6.30471 1.99749 7.55438C1.52763 8.76302 1.20628 10.1443 1.11416 12.1662C1.02204 14.1928 1 14.8401 1 20.0001C1 25.1601 1.02204 25.8075 1.11416 27.8339C1.20628 29.8566 1.52778 31.2373 1.99749 32.4458C2.48332 33.6955 3.13301 34.7547 4.18918 35.811C5.2455 36.8673 6.30547 37.5168 7.55438 38.0027C8.76302 38.4725 10.1443 38.7939 12.1662 38.886C14.1927 38.9781 14.8399 39.0002 20.0001 39.0002C25.1602 39.0002 25.8075 38.9781 27.8339 38.886C29.8566 38.7939 31.2373 38.4724 32.4458 38.0027C33.6955 37.5167 34.7547 36.8672 35.811 35.811C36.8673 34.7547 37.5168 33.6947 38.0027 32.4458C38.4725 31.2373 38.7939 29.8558 38.886 27.8339C38.9781 25.8075 39.0002 25.1602 39.0002 20.0001C39.0002 14.8399 38.9781 14.1927 38.886 12.1662C38.7939 10.1436 38.4724 8.76287 38.0027 7.55438C37.5167 6.30471 36.8672 5.2455 35.811 4.18918C34.7547 3.13301 33.6947 2.48332 32.4458 1.99749C31.2373 1.52763 29.8558 1.20628 27.8339 1.11416C25.8076 1.02204 25.1602 1 20.0001 1ZM20.0001 10.2434C14.6115 10.2434 10.2434 14.6115 10.2434 20.0001C10.2434 25.3887 14.6115 29.7569 20.0001 29.7569C25.3887 29.7569 29.7569 25.3887 29.7569 20.0001C29.7569 14.6115 25.3887 10.2434 20.0001 10.2434ZM20.0001 26.3339C16.5025 26.3339 13.6664 23.4988 13.6664 20.0002C13.6664 16.5017 16.5025 13.6666 20.0001 13.6666C23.4977 13.6666 26.3337 16.5017 26.3337 20.0002C26.3337 23.4988 23.4977 26.3339 20.0001 26.3339ZM30.1422 7.5781C28.8827 7.5781 27.8622 8.59854 27.8622 9.8581C27.8622 11.1177 28.8827 12.1383 30.1422 12.1383C31.4018 12.1383 32.4224 11.1177 32.4224 9.8581C32.4224 8.59854 31.4019 7.5781 30.1422 7.5781Z" fill="white"/>
</mask>
<g mask="url(#mask0_680_835)">
<rect x="-9.69043" y="-9.69043" width="59.284" height="59.284" fill="#222222"/>
</g>
</svg>
